<?xml version="1.0" encoding="iso-8859-1"?>
<!-- Generator: Adobe Illustrator 30.5.1, SVG Export Plug-In . SVG Version: 9.03 Build 0)  -->
<svg version="1.1" id="Layer_1" xmlns="http://www.w3.org/2000/svg" xmlns:xlink="http://www.w3.org/1999/xlink" x="0px" y="0px"
	 width="288px" height="216px" viewBox="0 0 288 216" enable-background="new 0 0 288 216" xml:space="preserve">
<g>
	<rect width="288" height="216"/>
</g>
<g>
	<g>
		<path fill="#FFFFFF" d="M55.589,81.434c-0.069-2.524-1.911-3.889-4.231-4.162c-3.754,0.545-7.097-2.184-7.097-6.961
			c0-4.641,3.48-7.779,8.393-7.779c4.231,0,6.688,1.365,6.688,7.097V94.4c0,3.548-0.75,4.776-3.548,5.936
			c-1.297,0.682-1.979,1.297-1.979,2.526c-0.068,2.388,3.822,2.594,6.892,2.594h1.433c5.459-0.069,9.076,0.272,12.42,0.272
			c11.561,0,20.318-4.257,24.307-12.667c1.084,7.602,7.425,12.967,16.264,12.967c9.724,0,16.448-6.362,16.448-15.306
			c0-8.824-6.723-15.247-16.448-15.247c-6.127,0-11.088,2.564-13.905,6.7c0.005-0.247,0.015-0.49,0.015-0.74
			c0-16.582-11.943-24.43-27.978-24.43c-3.753,0-7.029,0.341-11.123,0.273h-1.433h-0.955c-1.365-0.068-3.139-0.136-5.118-0.136
			c-10.373,0-16.65,6.482-16.65,14.876c0,7.234,5.323,14.672,12.624,14.125C53.884,86.074,55.657,83.959,55.589,81.434z
			 M113.991,79.496c5.282,0,8.223,8.643,8.223,14.286c0,5.282-2.521,8.343-6.002,8.343c-5.403,0-8.224-8.584-8.224-14.226
			C107.988,82.497,110.629,79.496,113.991,79.496z M69.852,63.759c0-1.501,0.546-2.047,2.184-1.978h0.682
			c9.622,0,16.992,6.756,16.992,20.267c0,11.805-4.641,18.561-14.535,18.561h-1.842c-2.661,0-3.548-1.024-3.48-3.889V63.759z"/>
		<path fill="#FFFFFF" d="M129.466,79.916c1.38,0.481,1.981,0.9,2.701,3.001c2.341,6.723,4.742,13.387,7.503,20.109
			c0.84,1.921,1.86,2.522,4.382,2.522h0.36c2.101,0,3.361-1.081,4.682-2.882c1.681-2.341,3.182-4.742,4.502-7.624
			c0.24-0.36,0.54-0.479,0.841,0.181c1.14,2.882,2.161,5.342,3.241,7.803c0.96,1.981,1.801,2.522,3.781,2.522h0.42
			c2.041,0,3.241-1.081,5.222-3.782c4.923-6.602,8.044-13.206,8.044-18.428c0-0.702-0.046-1.391-0.135-2.055
			c0.505,0.125,1.139,0.178,1.816,0.314c1.321,0.36,1.561,1.32,1.561,2.941v12.425c0,2.341-0.06,3.842-2.822,4.982
			c-0.78,0.36-1.26,0.839-1.26,1.68c0,1.321,1.08,2.041,6.063,2.041h5.042c5.162,0,6.003-0.72,6.003-2.041
			c0-0.9-0.6-1.32-1.261-1.68c-2.881-1.141-2.941-2.522-2.941-5.042v-6.783c0-5.944,3.421-8.524,6.063-8.524
			c3.302,0,4.862,2.041,5.342,6.483l1.081,9.844c0.12,1.441,0.12,3.061-2.281,4.082c-0.72,0.36-1.2,0.78-1.2,1.62
			c0,1.321,1.081,2.041,5.642,2.041h5.162c5.042,0,5.823-0.72,5.823-2.041c0-0.9-0.6-1.26-1.321-1.68
			c-2.701-1.261-2.882-2.522-3.001-4.082l-1.261-11.285c-0.9-8.284-4.922-11.105-9.964-11.105c-7.864,0-9.244,6.123-9.844,6.123
			c-0.12,0-0.24-0.18-0.24-0.721v-2.941c0-1.62-0.72-2.101-2.401-2.101c-2.041,0-5.522,1.261-8.404,2.222
			c-0.779,0.305-1.472,0.576-1.925,0.966c-0.738-2.057-2.125-3.487-4.318-3.487c-2.161,0-4.022,0.9-4.022,3.241
			c0,1.321,0.66,2.701,1.441,3.542c1.501,1.441,1.86,2.581,1.86,4.202c0,3.002-1.621,6.063-4.322,10.145
			c-0.36,0.54-0.9,0.841-1.321,0c-1.981-3.901-4.202-11.405-4.202-12.366c0-0.36,0.24-1.441,0.24-2.222
			c0-4.681-2.521-6.543-5.702-6.543h-0.24c-3.962,0-4.802,2.101-4.802,3.542c0,1.141,0.54,2.281,1.501,3.362
			c1.14,1.08,1.621,2.101,1.621,4.381c0,2.702-1.561,6.063-4.082,9.845c-0.48,0.66-1.021,0.841-1.38,0
			c-1.741-4.142-3.902-10.145-4.862-13.087c-0.6-2.04-0.36-3.24,1.801-4.021c0.6-0.3,1.08-0.96,1.08-1.621
			c0-1.2-0.54-1.98-4.502-1.98c-2.821,0.06-4.382,0.06-7.143,0c-3.361,0-4.982,0.179-4.982,2.041
			C128.145,79.015,128.685,79.496,129.466,79.916z"/>
		<path fill="#FFFFFF" d="M89.926,128.444c-9.664,0-16.447,6.363-16.447,15.247c0,2.515,0.563,4.829,1.569,6.868
			c-1.494,1.845-3.487,2.375-4.786,2.375c-2.581,0-4.202-1.741-4.202-5.282v-13.145c0-1.081,0.72-1.441,1.561-1.441h6.663
			c1.26,0,2.221-0.841,2.221-2.462c0-1.32-0.42-1.441-1.441-1.441H67.32c-1.081,0-1.2-0.239-1.2-2.64v-3.662
			c0-1.441-0.3-2.161-1.561-2.161c-1.561,0-3.241,0.66-4.862,2.101c-1.921,1.801-2.941,3.001-5.282,6.002
			c-0.78,0.961-1.14,1.862-1.14,2.581s0.48,1.681,1.56,1.681h1.081c0.9,0,1.38,0.479,1.38,1.38v14.527
			c0,7.203,3.782,9.904,9.604,9.904c4.865,0,8.224-1.915,9.842-5.665c2.892,3.577,7.523,5.785,13.184,5.785
			c9.724,0,16.448-6.362,16.448-15.306C106.373,134.867,99.65,128.444,89.926,128.444z M91.007,155.095
			c-5.403,0-8.224-8.584-8.224-14.226c0-5.402,2.641-8.403,6.003-8.403c5.282,0,8.223,8.643,8.223,14.286
			C97.009,152.034,94.488,155.095,91.007,155.095z"/>
		<path fill="#FFFFFF" d="M148.34,130.045c-0.509-1.719-1.656-2.358-2.548-2.358c-1.848,0-2.102,0.892-1.911,2.549
			c0.446,2.356,0.319,3.185-1.847,3.185h-2.994c-1.401,0-1.911-0.51-1.847-2.039v-6.943c0-2.229,0.574-2.74,2.93-2.485
			c6.179,0.574,12.44-1.45,15.734-4.868c2.229-1.592,2.994-4.269,2.357-6.243c-0.573-2.229-3.758-3.312-6.943-1.401
			c-6.737,5.327-15.989,6.397-28.794,3.784c-8.536-1.783-15.034,3.758-15.034,11.977c0,7.389,5.734,12.868,12.613,12.231
			c3.122-0.065,4.651-1.976,4.586-4.396c-0.063-2.294-1.847-3.758-4.395-3.695c-4.205,0.7-6.943-1.911-6.943-5.479
			c0-4.522,4.013-6.943,8.791-5.669c0.955,0.255,2.038,0.51,2.994,0.829c2.102,0.7,2.294,3.058,2.294,6.051v23.061
			c0,3.312-0.701,4.459-3.249,5.541c-1.211,0.702-1.911,1.274-1.911,2.421c0,2.229,3.631,2.358,6.497,2.358l1.338-0.065h3.631
			l1.783,0.065c3.695,0,8.409-0.128,8.409-2.484c0-1.211-0.892-1.784-2.421-2.484c-3.376-1.147-4.268-2.358-4.268-5.861v-7.835
			c0-1.401,0.509-1.911,2.038-1.847h3.949c1.72,0,2.675,0.51,3.504,3.313c0.509,1.401,1.083,2.038,2.484,2.038
			c2.548,0,2.229-1.719,1.592-4.014L148.34,130.045z"/>
		<path fill="#FFFFFF" d="M186.285,152.875c-1.321-0.361-1.561-1.321-1.561-2.941v-19.029c0-1.62-0.72-2.101-2.401-2.101
			c-2.041,0-5.523,1.261-8.404,2.222c-1.38,0.54-2.521,0.96-2.461,2.161c0.06,1.201,1.381,1.081,2.882,1.381
			c1.321,0.36,1.56,1.32,1.56,2.941v6.722c0,5.823-3.181,8.645-6.122,8.645c-3.182,0-5.102-1.681-5.102-6.663v-15.307
			c0-1.62-0.72-2.101-2.401-2.101c-2.041,0-5.522,1.261-8.404,2.222c-1.38,0.54-2.521,0.96-2.461,2.161
			c0.06,1.201,1.38,1.081,2.881,1.381c1.321,0.36,1.561,1.32,1.561,2.941v10.084c0,8.343,4.622,11.344,9.904,11.344
			c7.323,0,9.244-6.122,9.844-6.122c0.24,0,0.3,0.479,0.3,1.08v2.641c0,1.621,0.72,2.101,2.401,2.101c2.04,0,5.522-1.26,8.403-2.22
			c1.381-0.54,2.522-0.961,2.461-2.162C189.106,153.054,187.786,153.175,186.285,152.875z"/>
		<path fill="#FFFFFF" d="M213.838,148.912c-0.24,0-0.72,0.24-1.141,0.661c-1.381,1.801-4.142,3.542-7.563,3.542
			c-6.003,0-8.944-5.463-8.944-12.546c0-5.223,2.641-8.164,5.642-8.164c3.182,0,4.622,1.921,5.403,4.863
			c0.78,2.22,1.921,3.421,3.781,3.421c2.341,0,3.241-1.56,3.241-3.24c0-5.163-6.122-8.885-12.365-8.885
			c-7.803,0-14.707,6.303-14.707,15.247c0,8.643,5.883,15.186,15.127,15.186c7.383,0,11.465-4.021,12.785-8.103
			C215.339,149.993,215.039,148.912,213.838,148.912z"/>
		<path fill="#FFFFFF" d="M248.396,154.495c-1.441-0.36-2.041-0.66-3.721-3.061l-7.863-11.646c-0.601-0.9-0.72-1.38,0.3-2.401
			l2.461-2.461c1.2-1.2,2.521-1.86,5.162-2.041c1.02-0.06,1.921-0.481,1.921-1.981c0-1.741-1.501-1.801-2.941-1.801h-8.464
			c-1.501,0-3.062,0.3-3.062,1.621c0,0.96,0.54,1.38,1.081,1.62c1.86,0.36,1.501,1.321,0.3,2.522l-5.162,5.162
			c-1.021,1.021-1.801,0.781-1.801-0.78V118c0-1.562-0.66-2.101-2.401-2.101c-2.041,0-5.462,1.2-8.343,2.22
			c-1.381,0.481-2.521,0.9-2.461,2.161c0,1.141,1.321,1.261,2.821,1.381c1.381,0.12,1.561,1.321,1.561,2.941v24.31
			c0,3.422-0.06,5.042-3.061,6.063c-0.72,0.24-1.261,0.72-1.261,1.62c0,1.261,1.081,1.921,4.262,1.921
			c3.482-0.06,5.583-0.06,9.304,0c3.121,0,4.022-0.6,4.022-1.921c0-0.841-0.54-1.38-1.321-1.741
			c-3.061-1.08-3.122-2.461-3.122-4.081v-0.961c0-1.86,0.12-2.52,0.841-3.121l1.38-1.321c0.781-0.72,1.501-0.72,2.281,0.421
			l4.802,6.962c0.781,1.141,0.3,1.381-0.3,1.741c-0.18,0.781-0.96,1.2-0.96,2.101c0,1.2,0.841,1.921,4.322,1.921
			c2.941-0.06,4.802-0.06,7.624,0c1.921,0,3.421-0.66,3.421-2.101C250.016,155.455,249.176,154.735,248.396,154.495z"/>
	</g>
	<path fill="#FF0000" d="M217.854,93.005c0-5.491,3.983-6.186,5.703-6.186c1.72,0,3.259,0.694,4.466,1.78
		c0.573,0.543,1.056,0.543,1.629,0c1.207-1.086,2.746-1.78,4.466-1.78c1.72,0,5.703,0.694,5.703,6.186
		c0,4.345-4.737,9.867-10.169,12.885c-0.543,0.302-1.026,0.302-1.569,0C222.591,102.873,217.854,97.35,217.854,93.005z"/>
	<path fill="#FF0000" d="M231.84,70.273c2.152-3.085,4.661-1.914,5.627-1.24c0.966,0.674,1.559,1.667,1.811,2.75
		c0.109,0.53,0.38,0.719,0.915,0.638c1.104-0.137,2.24,0.076,3.206,0.75c0.966,0.674,2.931,2.625,0.78,5.709
		c-1.703,2.441-6.527,3.686-10.761,3.253c-0.423-0.043-0.694-0.232-0.881-0.615C230.634,77.671,230.137,72.713,231.84,70.273z"/>
	<path fill="#FF0000" d="M214.742,69.364c-1.197-2.663,0.583-3.868,1.417-4.243c0.834-0.375,1.732-0.374,2.554-0.111
		c0.396,0.138,0.63,0.033,0.79-0.355c0.349-0.79,0.943-1.462,1.777-1.837c0.834-0.375,2.917-0.907,4.114,1.756
		c0.947,2.107-0.145,5.818-2.121,8.465c-0.197,0.265-0.431,0.37-0.761,0.342C219.191,73.116,215.689,71.471,214.742,69.364z"/>
</g>
</svg>
