<?xml version="1.0" encoding="iso-8859-1"?>
<!-- Generator: Adobe Illustrator 30.5.1, SVG Export Plug-In . SVG Version: 9.03 Build 0)  -->
<svg version="1.1" id="Layer_1" xmlns="http://www.w3.org/2000/svg" xmlns:xlink="http://www.w3.org/1999/xlink" x="0px" y="0px"
	 width="288px" height="216px" viewBox="0 0 288 216" enable-background="new 0 0 288 216" xml:space="preserve">
<g>
	<rect width="288" height="216"/>
	<g>
		<rect width="288" height="216"/>
		<g>
			<g>
				<path fill="#FFFFFF" d="M45.599,62.149v91.22h196.32v-91.22H45.599z M240.919,152.369H46.599v-89.22h194.32V152.369z"/>
				<g>
					<path fill="#FFFFFF" d="M92.279,84.859v7.12l-0.13,0.13h-13.58l-0.13-0.13v-7.12h-10.13v21.3h10.13v-7.21l0.13-0.13h13.58
						l0.13,0.13v7.21h10.13v-21.3H92.279z"/>
					<path fill="#FFFFFF" d="M130.839,84.859h-12.59l-13.53,21.11v0.19h10.51l1.59-2.68h15.01l1.62,2.68h10.94v-0.19L130.839,84.859
						z M120.209,97.859l4.07-6.81l4.13,6.81H120.209z"/>
					<path fill="#FFFFFF" d="M172.909,99.629l3.64,0.03l4.29-4.29v-6.68l-3.83-3.83h-30.31v21.3h10.14v-6.44l0.03-0.03h3.54
						l9.14,6.47h12.34v-0.19L172.909,99.629z M171.009,94.309l-0.09,0.1h-13.99l-0.09-0.1v-3.26l0.09-0.12h13.99l0.09,0.12V94.309z"
						/>
					<path fill="#FFFFFF" d="M215.389,84.859h-31.31v21.3h31.31l3.82-3.86v-13.58L215.389,84.859z M209.069,99.499l-0.12,0.13
						h-14.61l-0.13-0.13v-7.98l0.13-0.13h14.61l0.12,0.13V99.499z"/>
					<g>
						<path fill="#FFFFFF" d="M92.009,121.309v-0.14l1.74-1.75v-4.32l-2.84-2.85h-22.6v18.41h22.7l2.93-2.93v-4.46L92.009,121.309z
							 M71.129,114.829l0.11-0.11h18.27l1.45,1.48v2.45l-1.45,1.47h-18.27l-0.11-0.1V114.829z M91.169,126.629l-1.55,1.55h-18.38
							l-0.11-0.1v-5.46l0.11-0.08h18.38l1.55,1.53V126.629z"/>
						<path fill="#FFFFFF" d="M121.789,112.249h-21.44l-3.06,3.06v12.28l3.06,3.07h21.44l3.04-3.07v-12.28L121.789,112.249z
							 M122.009,126.519l-1.64,1.64h-18.62l-1.64-1.64v-10.13l1.64-1.64h18.62l1.64,1.64V126.519z"/>
						<path fill="#FFFFFF" d="M152.789,112.249h-24.13v18.41h24.13l3.06-3.07v-12.28L152.789,112.249z M153.029,126.519l-1.67,1.64
							h-19.77l-0.11-0.11v-13.22l0.11-0.08h19.77l1.67,1.64V126.519z"/>
						<path fill="#FFFFFF" d="M159.649,112.249v18.41h2.82v-18.41H159.649z"/>
						<path fill="#FFFFFF" d="M169.439,114.719h21.11v-2.47h-24.04v18.41h24.04v-2.48h-21.11l-0.11-0.1v-5.35l0.11-0.11h20.85v-2.47
							h-20.85l-0.11-0.11v-5.21L169.439,114.719z"/>
						<path fill="#FFFFFF" d="M216.439,120.119h-18.78l-1.23-1.26v-2.71l1.45-1.48h17.03l1.45,1.48v1.66h2.8v-2.66l-2.88-2.9h-19.77
							l-2.93,2.9v4.73l2.77,2.77h18.78l1.26,1.24v2.87l-1.48,1.45h-17.09l-1.47-1.45v-1.66h-2.8v2.66l2.9,2.9h19.83l2.93-2.9v-4.9
							L216.439,120.119z"/>
					</g>
				</g>
			</g>
			<g>
				<path fill="#FFFFFF" d="M56.209,69.429c-0.92-0.92-2.41-0.92-3.33,0c-0.92,0.92-0.92,2.41,0,3.33c0.92,0.92,2.41,0.92,3.33,0
					C57.129,71.839,57.129,70.349,56.209,69.429z M55.959,71.339h-1.17v1.17h-0.5v-1.17h-1.17v-0.5h1.17v-1.16h0.5v1.16h1.17V71.339
					z"/>
			</g>
			<g>
				<path fill="#FFFFFF" d="M56.209,142.759c-0.92-0.92-2.41-0.92-3.33,0c-0.92,0.92-0.92,2.41,0,3.33c0.92,0.92,2.41,0.92,3.33,0
					C57.129,145.169,57.129,143.679,56.209,142.759z M55.959,144.679h-1.17v1.16h-0.5v-1.16h-1.17v-0.5h1.17v-1.17h0.5v1.17h1.17
					V144.679z"/>
			</g>
			<g>
				<path fill="#FFFFFF" d="M234.639,69.429c-0.92-0.92-2.41-0.92-3.33,0c-0.92,0.92-0.92,2.41,0,3.33c0.92,0.92,2.41,0.92,3.33,0
					C235.559,71.839,235.559,70.349,234.639,69.429z M234.399,71.339h-1.17v1.17h-0.5v-1.17h-1.17v-0.5h1.17v-1.16h0.5v1.16h1.17
					V71.339z"/>
			</g>
			<g>
				<path fill="#FFFFFF" d="M234.639,142.759c-0.92-0.92-2.41-0.92-3.33,0c-0.92,0.92-0.92,2.41,0,3.33c0.92,0.92,2.41,0.92,3.33,0
					C235.559,145.169,235.559,143.679,234.639,142.759z M234.399,144.679h-1.17v1.16h-0.5v-1.16h-1.17v-0.5h1.17v-1.17h0.5v1.17
					h1.17V144.679z"/>
			</g>
		</g>
	</g>
</g>
<g>
</g>
<g>
</g>
<g>
</g>
<g>
</g>
<g>
</g>
<g>
</g>
</svg>
